<svg width="121" height="119" viewBox="0 0 121 119" fill="none" xmlns="http://www.w3.org/2000/svg">
<path d="M112.884 30.6118C107.474 21.3424 100.135 14.0037 90.8665 8.59421C81.5965 3.18445 71.4764 0.480255 60.499 0.480255C49.5231 0.480255 39.3996 3.18528 30.1316 8.59421C20.8621 14.0034 13.524 21.3424 8.11396 30.6118C2.70474 39.881 0 50.003 0 60.9776C0 74.1606 3.84618 86.0151 11.5405 96.5441C19.234 107.074 29.1728 114.36 41.3561 118.404C42.7743 118.667 43.8241 118.482 44.5067 117.853C45.1896 117.223 45.5306 116.435 45.5306 115.491C45.5306 115.333 45.5171 113.916 45.4909 111.237C45.4639 108.558 45.4512 106.221 45.4512 104.227L43.6393 104.54C42.484 104.752 41.0267 104.842 39.2672 104.816C37.5086 104.792 35.6829 104.608 33.7926 104.265C31.9015 103.925 30.1426 103.137 28.5145 101.903C26.8871 100.669 25.7319 99.0537 25.049 97.0595L24.2613 95.2467C23.7362 94.0399 22.9096 92.6993 21.7803 91.2298C20.651 89.7589 19.509 88.7618 18.3538 88.2367L17.8023 87.8419C17.4347 87.5795 17.0937 87.263 16.7784 86.8958C16.4633 86.5285 16.2274 86.161 16.0698 85.793C15.912 85.4246 16.0428 85.1225 16.4635 84.8855C16.8843 84.6485 17.6447 84.5334 18.7481 84.5334L20.323 84.7688C21.3734 84.9793 22.6726 85.6081 24.2224 86.6591C25.7714 87.7092 27.0447 89.0744 28.0426 90.7541C29.2511 92.9079 30.7071 94.549 32.4147 95.6783C34.1209 96.8076 35.8412 97.3713 37.574 97.3713C39.3067 97.3713 40.8032 97.2399 42.0641 96.9786C43.3236 96.716 44.5054 96.3211 45.6087 95.7964C46.0814 92.2763 47.3682 89.5721 49.4682 87.6818C46.4751 87.3673 43.7841 86.8936 41.3939 86.2637C39.0051 85.6329 36.5365 84.6093 33.9899 83.19C31.4419 81.7727 29.3281 80.0127 27.6481 77.913C25.9678 75.8122 24.5888 73.0542 23.513 69.6415C22.4367 66.2274 21.8984 62.289 21.8984 57.8254C21.8984 51.4698 23.9733 46.0614 28.1221 41.5972C26.1786 36.819 26.3621 31.4625 28.6731 25.5282C30.1961 25.055 32.4547 25.4101 35.4478 26.5913C38.4414 27.773 40.6332 28.7853 42.0255 29.6246C43.4177 30.4637 44.5332 31.1747 45.3737 31.7513C50.2586 30.3864 55.2998 29.7038 60.4985 29.7038C65.6972 29.7038 70.7394 30.3864 75.6247 31.7513L78.618 29.8616C80.665 28.6007 83.0822 27.4452 85.864 26.3948C88.6473 25.345 90.7757 25.0558 92.2469 25.529C94.6092 31.4636 94.8197 36.8198 92.8757 41.598C97.0242 46.0622 99.0999 51.472 99.0999 57.8262C99.0999 62.2899 98.5597 66.2406 97.485 69.6809C96.409 73.1218 95.0181 75.877 93.3119 77.9524C91.6037 80.0276 89.4765 81.7738 86.9298 83.1909C84.3826 84.609 81.9132 85.6327 79.5244 86.2634C77.1345 86.8941 74.4435 87.3681 71.4504 87.6832C74.1803 90.0456 75.5455 93.7745 75.5455 98.8683V115.488C75.5455 116.432 75.8738 117.221 76.531 117.851C77.1874 118.479 78.224 118.665 79.6422 118.401C91.8272 114.358 101.766 107.072 109.459 96.5419C117.152 86.0129 120.999 74.1584 120.999 60.9754C120.996 50.0022 118.29 39.881 112.884 30.6118Z" fill="#FADEE1"/>
</svg>
