
<svg width="1321px" height="495px" viewBox="0 0 1321 495" version="1.1" xmlns="http://www.w3.org/2000/svg" xmlns:xlink="http://www.w3.org/1999/xlink">
    <defs>
        <path d="M510,397.4 L510,117.4 L539.6,117.4 L539.6,397.4 L510,397.4 Z M708,399.8 C666,399.8 624.8,385 604,363.4 L615.6,340.6 C635.6,360.2 671.2,374.6 708,374.6 C760.4,374.6 783.2,352.6 783.2,325 C783.2,248.2 610.8,295.4 610.8,191.8 C610.8,150.6 642.8,115 714,115 C745.6,115 778.4,124.2 800.8,139.8 L790.8,163.4 C766.8,147.8 738.8,140.2 714,140.2 C662.8,140.2 640,163 640,191 C640,267.8 812.4,221.4 812.4,323.4 C812.4,364.6 779.6,399.8 708,399.8 Z M954,399.8 C912,399.8 870.8,385 850,363.4 L861.6,340.6 C881.6,360.2 917.2,374.6 954,374.6 C1006.4,374.6 1029.2,352.6 1029.2,325 C1029.2,248.2 856.8,295.4 856.8,191.8 C856.8,150.6 888.8,115 960,115 C991.6,115 1024.4,124.2 1046.8,139.8 L1036.8,163.4 C1012.8,147.8 984.8,140.2 960,140.2 C908.8,140.2 886,163 886,191 C886,267.8 1058.4,221.4 1058.4,323.4 C1058.4,364.6 1025.6,399.8 954,399.8 Z M1152.4,371.8 L1320.8,371.8 L1320.8,397.4 L1122.8,397.4 L1122.8,117.4 L1314.8,117.4 L1314.8,143 L1152.4,143 L1152.4,242.6 L1297.2,242.6 L1297.2,267.8 L1152.4,267.8 L1152.4,371.8 Z" id="path-1"></path>
    </defs>
    <g id="Page-1" stroke="none" stroke-width="1" fill="none" fill-rule="evenodd">
        <g id="logo-line">
            <circle id="Oval" fill="#FADEE0" fill-rule="nonzero" cx="104.5" cy="158.5" r="104.5"></circle>
            <circle id="Oval" fill="#FADEE0" fill-rule="nonzero" cx="272.5" cy="104.5" r="104.5"></circle>
            <circle id="Oval" fill="#FADEE0" fill-rule="nonzero" cx="376.5" cy="246.5" r="104.5"></circle>
            <circle id="Oval" fill="#FADEE0" fill-rule="nonzero" cx="273.5" cy="390.5" r="104.5"></circle>
            <path d="M160.083,247 C143.983,257.133 124.928,263 104.5,263 C84.072,263 65.017,257.133 48.917,247 C19.531,265.495 0,298.214 0,335.5 C0,393.215 46.786,440 104.5,440 C162.215,440 209,393.215 209,335.5 C209,298.214 189.469,265.495 160.083,247 Z" id="Shape" fill="#FADEE0" fill-rule="nonzero"></path>
            <path d="M320.781,297.309 C302.818,331.599 266.895,355 225.5,355 C166.128,355 118,306.869 118,247.5 C118,188.13 166.128,140 225.5,140 C255.749,140 283.074,152.499 302.607,172.606 C308.547278,166.665695 315.179035,161.459801 322.36,157.1 C298.176,131.199 263.732,115 225.5,115 C152.321,115 93,174.323 93,247.5 C93,320.677 152.321,380 225.5,380 C275.546,380 319.104,352.251 341.646,311.304 C335.278703,305.817432 328.273155,301.118528 320.781,297.309 Z" id="Shape" fill="#244254" fill-rule="nonzero"></path>
            <g id="ISSE">
                <use fill="#000000" xlink:href="#path-1"></use>
                <use fill="#244254" xlink:href="#path-1"></use>
            </g>
        </g>
    </g>
</svg>