
<svg width="481px" height="495px" viewBox="0 0 481 495" version="1.1" xmlns="http://www.w3.org/2000/svg" xmlns:xlink="http://www.w3.org/1999/xlink">
    <defs>
        <path d="M312,269.838462 L312,224.389562 L316.804598,224.389562 L316.804598,269.838462 L312,269.838462 Z M344.138865,270.228024 C337.32153,270.228024 330.634049,267.825725 327.257845,264.319667 L329.140728,260.618828 C332.387078,263.800251 338.165581,266.137623 344.138865,266.137623 C352.644302,266.137623 356.345141,262.566638 356.345141,258.086675 C356.345141,245.620691 328.361604,253.282077 328.361604,236.465984 C328.361604,229.778503 333.555764,224 345.11277,224 C350.242003,224 355.566017,225.493321 359.201929,228.025474 L357.578754,231.856167 C353.683134,229.324014 349.138244,228.090401 345.11277,228.090401 C336.802114,228.090401 333.101275,231.79124 333.101275,236.33613 C333.101275,248.802114 361.084812,241.270582 361.084812,257.826967 C361.084812,264.514448 355.760798,270.228024 344.138865,270.228024 Z M384.06897,270.228024 C377.251635,270.228024 370.564154,267.825725 367.18795,264.319667 L369.070833,260.618828 C372.317183,263.800251 378.095686,266.137623 384.06897,266.137623 C392.574407,266.137623 396.275246,262.566638 396.275246,258.086675 C396.275246,245.620691 368.291709,253.282077 368.291709,236.465984 C368.291709,229.778503 373.485869,224 385.042875,224 C390.172108,224 395.496122,225.493321 399.132034,228.025474 L397.508859,231.856167 C393.613239,229.324014 389.068349,228.090401 385.042875,228.090401 C376.732219,228.090401 373.03138,231.79124 373.03138,236.33613 C373.03138,248.802114 401.014917,241.270582 401.014917,257.826967 C401.014917,264.514448 395.690903,270.228024 384.06897,270.228024 Z M416.272762,265.683134 L443.607029,265.683134 L443.607029,269.838462 L411.468164,269.838462 L411.468164,224.389562 L442.633124,224.389562 L442.633124,228.54489 L416.272762,228.54489 L416.272762,244.711713 L439.776336,244.711713 L439.776336,248.802114 L416.272762,248.802114 L416.272762,265.683134 Z" id="path-1"></path>
    </defs>
    <g id="Page-1" stroke="none" stroke-width="1" fill="none" fill-rule="evenodd">
        <g id="logo">
            <circle id="Oval" fill="#FAEFEF" fill-rule="nonzero" cx="104.5" cy="158.5" r="104.5"></circle>
            <circle id="Oval" fill="#FBEAEB" fill-rule="nonzero" cx="272.5" cy="104.5" r="104.5"></circle>
            <circle id="Oval" fill="#FADEE0" fill-rule="nonzero" cx="376.5" cy="246.5" r="104.5"></circle>
            <circle id="Oval" fill="#FBE6E8" fill-rule="nonzero" cx="273.5" cy="390.5" r="104.5"></circle>
            <path d="M160.083,247 C143.983,257.133 124.928,263 104.5,263 C84.072,263 65.017,257.133 48.917,247 C19.531,265.495 0,298.214 0,335.5 C0,393.215 46.786,440 104.5,440 C162.215,440 209,393.215 209,335.5 C209,298.214 189.469,265.495 160.083,247 Z" id="Shape" fill="#FBEFF0" fill-rule="nonzero"></path>
            <path d="M320.781,297.309 C302.818,331.599 266.895,355 225.5,355 C166.128,355 118,306.869 118,247.5 C118,188.13 166.128,140 225.5,140 C255.749,140 283.074,152.499 302.607,172.606 C308.547278,166.665695 315.179035,161.459801 322.36,157.1 C298.176,131.199 263.732,115 225.5,115 C152.321,115 93,174.323 93,247.5 C93,320.677 152.321,380 225.5,380 C275.546,380 319.104,352.251 341.646,311.304 C335.278703,305.817432 328.273155,301.118528 320.781,297.309 Z" id="Shape" fill="#244254" fill-rule="nonzero"></path>
            <g id="ISSE" fill="#244254">
                <use xlink:href="#path-1"></use>
                <use xlink:href="#path-1"></use>
            </g>
        </g>
    </g>
</svg>